<?xml version="1.0" encoding="UTF-8"?>
<svg xmlns="http://www.w3.org/2000/svg" xmlns:xlink="http://www.w3.org/1999/xlink" width="375pt" height="374.999991pt" viewBox="0 0 375 374.999991" version="1.2">
<defs>
<clipPath id="clip1">
  <path d="M 101 11 L 274 11 L 274 374 L 101 374 Z M 101 11 "/>
</clipPath>
<clipPath id="clip2">
  <path d="M 233.492188 424.695312 L -25.445312 295.230469 L 141.921875 -39.511719 L 400.859375 89.953125 Z M 233.492188 424.695312 "/>
</clipPath>
<clipPath id="clip3">
  <path d="M 233.492188 424.695312 L -25.445312 295.230469 L 141.921875 -39.511719 L 400.859375 89.953125 Z M 233.492188 424.695312 "/>
</clipPath>
<clipPath id="clip4">
  <path d="M 233.492188 424.695312 L -25.128906 295.386719 L 142.347656 -39.574219 L 400.96875 89.734375 Z M 233.492188 424.695312 "/>
</clipPath>
<clipPath id="clip5">
  <path d="M 171 11 L 204 11 L 204 12 L 171 12 Z M 171 11 "/>
</clipPath>
<clipPath id="clip6">
  <path d="M 233.492188 424.695312 L -25.445312 295.230469 L 141.921875 -39.511719 L 400.859375 89.953125 Z M 233.492188 424.695312 "/>
</clipPath>
<clipPath id="clip7">
  <path d="M 233.492188 424.695312 L -25.445312 295.230469 L 141.921875 -39.511719 L 400.859375 89.953125 Z M 233.492188 424.695312 "/>
</clipPath>
<clipPath id="clip8">
  <path d="M 233.492188 424.695312 L -25.128906 295.386719 L 142.347656 -39.574219 L 400.96875 89.734375 Z M 233.492188 424.695312 "/>
</clipPath>
<clipPath id="clip9">
  <path d="M 119 11 L 256 11 L 256 125 L 119 125 Z M 119 11 "/>
</clipPath>
<clipPath id="clip10">
  <path d="M 233.492188 424.695312 L -25.445312 295.230469 L 141.921875 -39.511719 L 400.859375 89.953125 Z M 233.492188 424.695312 "/>
</clipPath>
<clipPath id="clip11">
  <path d="M 233.492188 424.695312 L -25.445312 295.230469 L 141.921875 -39.511719 L 400.859375 89.953125 Z M 233.492188 424.695312 "/>
</clipPath>
<clipPath id="clip12">
  <path d="M 233.492188 424.695312 L -25.128906 295.386719 L 142.347656 -39.574219 L 400.96875 89.734375 Z M 233.492188 424.695312 "/>
</clipPath>
<clipPath id="clip13">
  <path d="M 115 126 L 260 126 L 260 338 L 115 338 Z M 115 126 "/>
</clipPath>
<clipPath id="clip14">
  <path d="M 233.492188 424.695312 L -25.445312 295.230469 L 141.921875 -39.511719 L 400.859375 89.953125 Z M 233.492188 424.695312 "/>
</clipPath>
<clipPath id="clip15">
  <path d="M 233.492188 424.695312 L -25.445312 295.230469 L 141.921875 -39.511719 L 400.859375 89.953125 Z M 233.492188 424.695312 "/>
</clipPath>
<clipPath id="clip16">
  <path d="M 233.492188 424.695312 L -25.128906 295.386719 L 142.347656 -39.574219 L 400.96875 89.734375 Z M 233.492188 424.695312 "/>
</clipPath>
<clipPath id="clip17">
  <path d="M 165 336 L 173 336 L 173 338 L 165 338 Z M 165 336 "/>
</clipPath>
<clipPath id="clip18">
  <path d="M 233.492188 424.695312 L -25.445312 295.230469 L 141.921875 -39.511719 L 400.859375 89.953125 Z M 233.492188 424.695312 "/>
</clipPath>
<clipPath id="clip19">
  <path d="M 233.492188 424.695312 L -25.445312 295.230469 L 141.921875 -39.511719 L 400.859375 89.953125 Z M 233.492188 424.695312 "/>
</clipPath>
<clipPath id="clip20">
  <path d="M 233.492188 424.695312 L -25.128906 295.386719 L 142.347656 -39.574219 L 400.96875 89.734375 Z M 233.492188 424.695312 "/>
</clipPath>
<clipPath id="clip21">
  <path d="M 165 291 L 193 291 L 193 338 L 165 338 Z M 165 291 "/>
</clipPath>
<clipPath id="clip22">
  <path d="M 233.492188 424.695312 L -25.445312 295.230469 L 141.921875 -39.511719 L 400.859375 89.953125 Z M 233.492188 424.695312 "/>
</clipPath>
<clipPath id="clip23">
  <path d="M 233.492188 424.695312 L -25.445312 295.230469 L 141.921875 -39.511719 L 400.859375 89.953125 Z M 233.492188 424.695312 "/>
</clipPath>
<clipPath id="clip24">
  <path d="M 233.492188 424.695312 L -25.128906 295.386719 L 142.347656 -39.574219 L 400.96875 89.734375 Z M 233.492188 424.695312 "/>
</clipPath>
<clipPath id="clip25">
  <path d="M 183 337 L 188 337 L 188 338 L 183 338 Z M 183 337 "/>
</clipPath>
<clipPath id="clip26">
  <path d="M 233.492188 424.695312 L -25.445312 295.230469 L 141.921875 -39.511719 L 400.859375 89.953125 Z M 233.492188 424.695312 "/>
</clipPath>
<clipPath id="clip27">
  <path d="M 233.492188 424.695312 L -25.445312 295.230469 L 141.921875 -39.511719 L 400.859375 89.953125 Z M 233.492188 424.695312 "/>
</clipPath>
<clipPath id="clip28">
  <path d="M 233.492188 424.695312 L -25.128906 295.386719 L 142.347656 -39.574219 L 400.96875 89.734375 Z M 233.492188 424.695312 "/>
</clipPath>
<clipPath id="clip29">
  <path d="M 183 291 L 211 291 L 211 338 L 183 338 Z M 183 291 "/>
</clipPath>
<clipPath id="clip30">
  <path d="M 233.492188 424.695312 L -25.445312 295.230469 L 141.921875 -39.511719 L 400.859375 89.953125 Z M 233.492188 424.695312 "/>
</clipPath>
<clipPath id="clip31">
  <path d="M 233.492188 424.695312 L -25.445312 295.230469 L 141.921875 -39.511719 L 400.859375 89.953125 Z M 233.492188 424.695312 "/>
</clipPath>
<clipPath id="clip32">
  <path d="M 233.492188 424.695312 L -25.128906 295.386719 L 142.347656 -39.574219 L 400.96875 89.734375 Z M 233.492188 424.695312 "/>
</clipPath>
<clipPath id="clip33">
  <path d="M 134 150 L 242 150 L 242 292 L 134 292 Z M 134 150 "/>
</clipPath>
<clipPath id="clip34">
  <path d="M 233.492188 424.695312 L -25.445312 295.230469 L 141.921875 -39.511719 L 400.859375 89.953125 Z M 233.492188 424.695312 "/>
</clipPath>
<clipPath id="clip35">
  <path d="M 233.492188 424.695312 L -25.445312 295.230469 L 141.921875 -39.511719 L 400.859375 89.953125 Z M 233.492188 424.695312 "/>
</clipPath>
<clipPath id="clip36">
  <path d="M 233.492188 424.695312 L -25.128906 295.386719 L 142.347656 -39.574219 L 400.96875 89.734375 Z M 233.492188 424.695312 "/>
</clipPath>
<clipPath id="clip37">
  <path d="M 119 17 L 142 17 L 142 39 L 119 39 Z M 119 17 "/>
</clipPath>
<clipPath id="clip38">
  <path d="M 233.492188 424.695312 L -25.445312 295.230469 L 141.921875 -39.511719 L 400.859375 89.953125 Z M 233.492188 424.695312 "/>
</clipPath>
<clipPath id="clip39">
  <path d="M 233.492188 424.695312 L -25.445312 295.230469 L 141.921875 -39.511719 L 400.859375 89.953125 Z M 233.492188 424.695312 "/>
</clipPath>
<clipPath id="clip40">
  <path d="M 233.492188 424.695312 L -25.128906 295.386719 L 142.347656 -39.574219 L 400.96875 89.734375 Z M 233.492188 424.695312 "/>
</clipPath>
<clipPath id="clip41">
  <path d="M 128 18 L 140 18 L 140 28 L 128 28 Z M 128 18 "/>
</clipPath>
<clipPath id="clip42">
  <path d="M 233.492188 424.695312 L -25.445312 295.230469 L 141.921875 -39.511719 L 400.859375 89.953125 Z M 233.492188 424.695312 "/>
</clipPath>
<clipPath id="clip43">
  <path d="M 233.492188 424.695312 L -25.445312 295.230469 L 141.921875 -39.511719 L 400.859375 89.953125 Z M 233.492188 424.695312 "/>
</clipPath>
<clipPath id="clip44">
  <path d="M 233.492188 424.695312 L -25.128906 295.386719 L 142.347656 -39.574219 L 400.96875 89.734375 Z M 233.492188 424.695312 "/>
</clipPath>
<clipPath id="clip45">
  <path d="M 122 26 L 130 26 L 130 33 L 122 33 Z M 122 26 "/>
</clipPath>
<clipPath id="clip46">
  <path d="M 233.492188 424.695312 L -25.445312 295.230469 L 141.921875 -39.511719 L 400.859375 89.953125 Z M 233.492188 424.695312 "/>
</clipPath>
<clipPath id="clip47">
  <path d="M 233.492188 424.695312 L -25.445312 295.230469 L 141.921875 -39.511719 L 400.859375 89.953125 Z M 233.492188 424.695312 "/>
</clipPath>
<clipPath id="clip48">
  <path d="M 233.492188 424.695312 L -25.128906 295.386719 L 142.347656 -39.574219 L 400.96875 89.734375 Z M 233.492188 424.695312 "/>
</clipPath>
<clipPath id="clip49">
  <path d="M 126 30 L 131 30 L 131 35 L 126 35 Z M 126 30 "/>
</clipPath>
<clipPath id="clip50">
  <path d="M 233.492188 424.695312 L -25.445312 295.230469 L 141.921875 -39.511719 L 400.859375 89.953125 Z M 233.492188 424.695312 "/>
</clipPath>
<clipPath id="clip51">
  <path d="M 233.492188 424.695312 L -25.445312 295.230469 L 141.921875 -39.511719 L 400.859375 89.953125 Z M 233.492188 424.695312 "/>
</clipPath>
<clipPath id="clip52">
  <path d="M 233.492188 424.695312 L -25.128906 295.386719 L 142.347656 -39.574219 L 400.96875 89.734375 Z M 233.492188 424.695312 "/>
</clipPath>
<clipPath id="clip53">
  <path d="M 233 16 L 256 16 L 256 39 L 233 39 Z M 233 16 "/>
</clipPath>
<clipPath id="clip54">
  <path d="M 233.492188 424.695312 L -25.445312 295.230469 L 141.921875 -39.511719 L 400.859375 89.953125 Z M 233.492188 424.695312 "/>
</clipPath>
<clipPath id="clip55">
  <path d="M 233.492188 424.695312 L -25.445312 295.230469 L 141.921875 -39.511719 L 400.859375 89.953125 Z M 233.492188 424.695312 "/>
</clipPath>
<clipPath id="clip56">
  <path d="M 233.492188 424.695312 L -25.128906 295.386719 L 142.347656 -39.574219 L 400.96875 89.734375 Z M 233.492188 424.695312 "/>
</clipPath>
<clipPath id="clip57">
  <path d="M 235 17 L 247 17 L 247 27 L 235 27 Z M 235 17 "/>
</clipPath>
<clipPath id="clip58">
  <path d="M 233.492188 424.695312 L -25.445312 295.230469 L 141.921875 -39.511719 L 400.859375 89.953125 Z M 233.492188 424.695312 "/>
</clipPath>
<clipPath id="clip59">
  <path d="M 233.492188 424.695312 L -25.445312 295.230469 L 141.921875 -39.511719 L 400.859375 89.953125 Z M 233.492188 424.695312 "/>
</clipPath>
<clipPath id="clip60">
  <path d="M 233.492188 424.695312 L -25.128906 295.386719 L 142.347656 -39.574219 L 400.96875 89.734375 Z M 233.492188 424.695312 "/>
</clipPath>
<clipPath id="clip61">
  <path d="M 245 25 L 253 25 L 253 33 L 245 33 Z M 245 25 "/>
</clipPath>
<clipPath id="clip62">
  <path d="M 233.492188 424.695312 L -25.445312 295.230469 L 141.921875 -39.511719 L 400.859375 89.953125 Z M 233.492188 424.695312 "/>
</clipPath>
<clipPath id="clip63">
  <path d="M 233.492188 424.695312 L -25.445312 295.230469 L 141.921875 -39.511719 L 400.859375 89.953125 Z M 233.492188 424.695312 "/>
</clipPath>
<clipPath id="clip64">
  <path d="M 233.492188 424.695312 L -25.128906 295.386719 L 142.347656 -39.574219 L 400.96875 89.734375 Z M 233.492188 424.695312 "/>
</clipPath>
<clipPath id="clip65">
  <path d="M 244 29 L 249 29 L 249 34 L 244 34 Z M 244 29 "/>
</clipPath>
<clipPath id="clip66">
  <path d="M 233.492188 424.695312 L -25.445312 295.230469 L 141.921875 -39.511719 L 400.859375 89.953125 Z M 233.492188 424.695312 "/>
</clipPath>
<clipPath id="clip67">
  <path d="M 233.492188 424.695312 L -25.445312 295.230469 L 141.921875 -39.511719 L 400.859375 89.953125 Z M 233.492188 424.695312 "/>
</clipPath>
<clipPath id="clip68">
  <path d="M 233.492188 424.695312 L -25.128906 295.386719 L 142.347656 -39.574219 L 400.96875 89.734375 Z M 233.492188 424.695312 "/>
</clipPath>
<clipPath id="clip69">
  <path d="M 154 7 L 221 7 L 221 19 L 154 19 Z M 154 7 "/>
</clipPath>
<clipPath id="clip70">
  <path d="M 233.492188 424.695312 L -25.445312 295.230469 L 141.921875 -39.511719 L 400.859375 89.953125 Z M 233.492188 424.695312 "/>
</clipPath>
<clipPath id="clip71">
  <path d="M 233.492188 424.695312 L -25.445312 295.230469 L 141.921875 -39.511719 L 400.859375 89.953125 Z M 233.492188 424.695312 "/>
</clipPath>
<clipPath id="clip72">
  <path d="M 233.492188 424.695312 L -25.128906 295.386719 L 142.347656 -39.574219 L 400.96875 89.734375 Z M 233.492188 424.695312 "/>
</clipPath>
<clipPath id="clip73">
  <path d="M 84 126 L 116 126 L 116 150 L 84 150 Z M 84 126 "/>
</clipPath>
<clipPath id="clip74">
  <path d="M 233.492188 424.695312 L -25.445312 295.230469 L 141.921875 -39.511719 L 400.859375 89.953125 Z M 233.492188 424.695312 "/>
</clipPath>
<clipPath id="clip75">
  <path d="M 233.492188 424.695312 L -25.445312 295.230469 L 141.921875 -39.511719 L 400.859375 89.953125 Z M 233.492188 424.695312 "/>
</clipPath>
<clipPath id="clip76">
  <path d="M 233.492188 424.695312 L -25.128906 295.386719 L 142.347656 -39.574219 L 400.96875 89.734375 Z M 233.492188 424.695312 "/>
</clipPath>
<clipPath id="clip77">
  <path d="M 259 125 L 291 125 L 291 149 L 259 149 Z M 259 125 "/>
</clipPath>
<clipPath id="clip78">
  <path d="M 233.492188 424.695312 L -25.445312 295.230469 L 141.921875 -39.511719 L 400.859375 89.953125 Z M 233.492188 424.695312 "/>
</clipPath>
<clipPath id="clip79">
  <path d="M 233.492188 424.695312 L -25.445312 295.230469 L 141.921875 -39.511719 L 400.859375 89.953125 Z M 233.492188 424.695312 "/>
</clipPath>
<clipPath id="clip80">
  <path d="M 233.492188 424.695312 L -25.128906 295.386719 L 142.347656 -39.574219 L 400.96875 89.734375 Z M 233.492188 424.695312 "/>
</clipPath>
<clipPath id="clip81">
  <path d="M 112 113 L 263 113 L 263 185 L 112 185 Z M 112 113 "/>
</clipPath>
<clipPath id="clip82">
  <path d="M 233.492188 424.695312 L -25.445312 295.230469 L 141.921875 -39.511719 L 400.859375 89.953125 Z M 233.492188 424.695312 "/>
</clipPath>
<clipPath id="clip83">
  <path d="M 233.492188 424.695312 L -25.445312 295.230469 L 141.921875 -39.511719 L 400.859375 89.953125 Z M 233.492188 424.695312 "/>
</clipPath>
<clipPath id="clip84">
  <path d="M 233.492188 424.695312 L -25.128906 295.386719 L 142.347656 -39.574219 L 400.96875 89.734375 Z M 233.492188 424.695312 "/>
</clipPath>
<clipPath id="clip85">
  <path d="M 120 113 L 255 113 L 255 170 L 120 170 Z M 120 113 "/>
</clipPath>
<clipPath id="clip86">
  <path d="M 233.492188 424.695312 L -25.445312 295.230469 L 141.921875 -39.511719 L 400.859375 89.953125 Z M 233.492188 424.695312 "/>
</clipPath>
<clipPath id="clip87">
  <path d="M 233.492188 424.695312 L -25.445312 295.230469 L 141.921875 -39.511719 L 400.859375 89.953125 Z M 233.492188 424.695312 "/>
</clipPath>
<clipPath id="clip88">
  <path d="M 233.492188 424.695312 L -25.128906 295.386719 L 142.347656 -39.574219 L 400.96875 89.734375 Z M 233.492188 424.695312 "/>
</clipPath>
<clipPath id="clip89">
  <path d="M 116 346 L 155 346 L 155 373 L 116 373 Z M 116 346 "/>
</clipPath>
<clipPath id="clip90">
  <path d="M 233.492188 424.695312 L -25.445312 295.230469 L 141.921875 -39.511719 L 400.859375 89.953125 Z M 233.492188 424.695312 "/>
</clipPath>
<clipPath id="clip91">
  <path d="M 233.492188 424.695312 L -25.445312 295.230469 L 141.921875 -39.511719 L 400.859375 89.953125 Z M 233.492188 424.695312 "/>
</clipPath>
<clipPath id="clip92">
  <path d="M 233.492188 424.695312 L -25.128906 295.386719 L 142.347656 -39.574219 L 400.96875 89.734375 Z M 233.492188 424.695312 "/>
</clipPath>
<clipPath id="clip93">
  <path d="M 222 345 L 260 345 L 260 372 L 222 372 Z M 222 345 "/>
</clipPath>
<clipPath id="clip94">
  <path d="M 233.492188 424.695312 L -25.445312 295.230469 L 141.921875 -39.511719 L 400.859375 89.953125 Z M 233.492188 424.695312 "/>
</clipPath>
<clipPath id="clip95">
  <path d="M 233.492188 424.695312 L -25.445312 295.230469 L 141.921875 -39.511719 L 400.859375 89.953125 Z M 233.492188 424.695312 "/>
</clipPath>
<clipPath id="clip96">
  <path d="M 233.492188 424.695312 L -25.128906 295.386719 L 142.347656 -39.574219 L 400.96875 89.734375 Z M 233.492188 424.695312 "/>
</clipPath>
<clipPath id="clip97">
  <path d="M 171 356 L 206 356 L 206 361 L 171 361 Z M 171 356 "/>
</clipPath>
<clipPath id="clip98">
  <path d="M 233.492188 424.695312 L -25.445312 295.230469 L 141.921875 -39.511719 L 400.859375 89.953125 Z M 233.492188 424.695312 "/>
</clipPath>
<clipPath id="clip99">
  <path d="M 233.492188 424.695312 L -25.445312 295.230469 L 141.921875 -39.511719 L 400.859375 89.953125 Z M 233.492188 424.695312 "/>
</clipPath>
<clipPath id="clip100">
  <path d="M 233.492188 424.695312 L -25.128906 295.386719 L 142.347656 -39.574219 L 400.96875 89.734375 Z M 233.492188 424.695312 "/>
</clipPath>
<clipPath id="clip101">
  <path d="M 113 271 L 263 271 L 263 292 L 113 292 Z M 113 271 "/>
</clipPath>
<clipPath id="clip102">
  <path d="M 233.492188 424.695312 L -25.445312 295.230469 L 141.921875 -39.511719 L 400.859375 89.953125 Z M 233.492188 424.695312 "/>
</clipPath>
<clipPath id="clip103">
  <path d="M 233.492188 424.695312 L -25.445312 295.230469 L 141.921875 -39.511719 L 400.859375 89.953125 Z M 233.492188 424.695312 "/>
</clipPath>
<clipPath id="clip104">
  <path d="M 233.492188 424.695312 L -25.128906 295.386719 L 142.347656 -39.574219 L 400.96875 89.734375 Z M 233.492188 424.695312 "/>
</clipPath>
<clipPath id="clip105">
  <path d="M 113 207 L 263 207 L 263 222 L 113 222 Z M 113 207 "/>
</clipPath>
<clipPath id="clip106">
  <path d="M 233.492188 424.695312 L -25.445312 295.230469 L 141.921875 -39.511719 L 400.859375 89.953125 Z M 233.492188 424.695312 "/>
</clipPath>
<clipPath id="clip107">
  <path d="M 233.492188 424.695312 L -25.445312 295.230469 L 141.921875 -39.511719 L 400.859375 89.953125 Z M 233.492188 424.695312 "/>
</clipPath>
<clipPath id="clip108">
  <path d="M 233.492188 424.695312 L -25.128906 295.386719 L 142.347656 -39.574219 L 400.96875 89.734375 Z M 233.492188 424.695312 "/>
</clipPath>
<clipPath id="clip109">
  <path d="M 141 24 L 167 24 L 167 43 L 141 43 Z M 141 24 "/>
</clipPath>
<clipPath id="clip110">
  <path d="M 233.492188 424.695312 L -25.445312 295.230469 L 141.921875 -39.511719 L 400.859375 89.953125 Z M 233.492188 424.695312 "/>
</clipPath>
<clipPath id="clip111">
  <path d="M 233.492188 424.695312 L -25.445312 295.230469 L 141.921875 -39.511719 L 400.859375 89.953125 Z M 233.492188 424.695312 "/>
</clipPath>
<clipPath id="clip112">
  <path d="M 233.492188 424.695312 L -25.128906 295.386719 L 142.347656 -39.574219 L 400.96875 89.734375 Z M 233.492188 424.695312 "/>
</clipPath>
<clipPath id="clip113">
  <path d="M 208 24 L 234 24 L 234 43 L 208 43 Z M 208 24 "/>
</clipPath>
<clipPath id="clip114">
  <path d="M 233.492188 424.695312 L -25.445312 295.230469 L 141.921875 -39.511719 L 400.859375 89.953125 Z M 233.492188 424.695312 "/>
</clipPath>
<clipPath id="clip115">
  <path d="M 233.492188 424.695312 L -25.445312 295.230469 L 141.921875 -39.511719 L 400.859375 89.953125 Z M 233.492188 424.695312 "/>
</clipPath>
<clipPath id="clip116">
  <path d="M 233.492188 424.695312 L -25.128906 295.386719 L 142.347656 -39.574219 L 400.96875 89.734375 Z M 233.492188 424.695312 "/>
</clipPath>
</defs>
<g id="surface1">
<g clip-path="url(#clip1)" clip-rule="nonzero">
<g clip-path="url(#clip2)" clip-rule="nonzero">
<g clip-path="url(#clip3)" clip-rule="nonzero">
<g clip-path="url(#clip4)" clip-rule="nonzero">
<path style=" stroke:none;fill-rule:nonzero;fill:rgb(39.608765%,77.249146%,28.239441%);fill-opacity:1;" d="M 101.8125 78.257812 C 101.71875 41.542969 131.328125 11.617188 167.960938 11.414062 L 206.894531 11.195312 C 243.519531 10.988281 273.289062 40.582031 273.386719 77.289062 L 273.980469 306.726562 C 274.078125 343.4375 244.460938 373.363281 207.832031 373.566406 L 168.902344 373.785156 C 132.273438 373.984375 102.5 344.394531 102.40625 307.691406 L 101.8125 78.257812 "/>
</g>
</g>
</g>
</g>
<g clip-path="url(#clip5)" clip-rule="nonzero">
<g clip-path="url(#clip6)" clip-rule="nonzero">
<g clip-path="url(#clip7)" clip-rule="nonzero">
<g clip-path="url(#clip8)" clip-rule="nonzero">
<path style=" stroke:none;fill-rule:nonzero;fill:rgb(100%,100%,100%);fill-opacity:1;" d="M 203.097656 11.214844 L 171.695312 11.394531 C 171.808594 11.390625 171.921875 11.386719 172.035156 11.386719 L 202.820312 11.21875 C 202.914062 11.214844 203.003906 11.214844 203.097656 11.214844 "/>
</g>
</g>
</g>
</g>
<g clip-path="url(#clip9)" clip-rule="nonzero">
<g clip-path="url(#clip10)" clip-rule="nonzero">
<g clip-path="url(#clip11)" clip-rule="nonzero">
<g clip-path="url(#clip12)" clip-rule="nonzero">
<path style=" stroke:none;fill-rule:nonzero;fill:rgb(45.878601%,79.60968%,33.729553%);fill-opacity:1;" d="M 218.085938 14.945312 C 239.640625 25.722656 255.386719 57.925781 255.460938 85.730469 L 255.558594 124.050781 L 254.222656 123.835938 C 253.527344 122.644531 252.128906 121.546875 250.144531 120.558594 C 239.851562 115.410156 213.78125 112.957031 187.710938 113.101562 L 187.691406 113.097656 L 187.671875 113.101562 C 156.578125 113.277344 125.503906 117.15625 121.222656 124.578125 L 119.878906 124.8125 L 119.78125 86.496094 C 119.691406 52.582031 142.886719 11.871094 171.695312 11.394531 L 203.097656 11.214844 C 208.304688 11.234375 213.332031 12.570312 218.085938 14.945312 M 224.574219 42.089844 L 233.753906 42.042969 C 232.511719 39.570312 230.722656 37.070312 228.429688 34.792969 C 224.78125 31.167969 220.597656 27.742188 216.847656 25.871094 C 213.378906 24.136719 210.28125 23.726562 208.320312 25.707031 C 208.320312 25.707031 208.320312 25.707031 208.324219 25.707031 C 208.414062 25.753906 212.742188 27.933594 219.679688 34.835938 C 221.574219 36.71875 223.171875 39.34375 224.574219 42.089844 M 141.261719 42.5625 L 150.441406 42.507812 C 151.828125 39.746094 153.410156 37.101562 155.296875 35.195312 C 162.277344 28.144531 166.605469 25.941406 166.605469 25.941406 C 166.269531 25.605469 165.898438 25.339844 165.5 25.140625 C 161.042969 22.910156 152.957031 28.777344 146.546875 35.25 C 144.265625 37.558594 142.492188 40.078125 141.261719 42.5625 "/>
</g>
</g>
</g>
</g>
<g clip-path="url(#clip13)" clip-rule="nonzero">
<g clip-path="url(#clip14)" clip-rule="nonzero">
<g clip-path="url(#clip15)" clip-rule="nonzero">
<g clip-path="url(#clip16)" clip-rule="nonzero">
<path style=" stroke:none;fill-rule:nonzero;fill:rgb(18.03894%,21.569824%,32.939148%);fill-opacity:1;" d="M 115.96875 127.085938 L 116.371094 282.015625 C 116.453125 312.71875 141.351562 337.46875 171.992188 337.292969 L 204.554688 337.117188 C 235.191406 336.941406 259.960938 311.910156 259.878906 281.207031 L 259.476562 126.28125 L 115.96875 127.085938 "/>
</g>
</g>
</g>
</g>
<g clip-path="url(#clip17)" clip-rule="nonzero">
<g clip-path="url(#clip18)" clip-rule="nonzero">
<g clip-path="url(#clip19)" clip-rule="nonzero">
<g clip-path="url(#clip20)" clip-rule="nonzero">
<path style=" stroke:none;fill-rule:nonzero;fill:rgb(45.878601%,79.60968%,33.729553%);fill-opacity:1;" d="M 172.667969 337.289062 L 165.363281 337.335938 L 165.527344 336.960938 C 167.644531 337.191406 169.804688 337.308594 171.992188 337.292969 L 172.667969 337.289062 "/>
</g>
</g>
</g>
</g>
<g clip-path="url(#clip21)" clip-rule="nonzero">
<g clip-path="url(#clip22)" clip-rule="nonzero">
<g clip-path="url(#clip23)" clip-rule="nonzero">
<g clip-path="url(#clip24)" clip-rule="nonzero">
<path style=" stroke:none;fill-rule:nonzero;fill:rgb(23.529053%,25.878906%,36.859131%);fill-opacity:1;" d="M 192.023438 291.472656 L 172.667969 337.289062 L 171.992188 337.292969 C 169.804688 337.308594 167.644531 337.191406 165.527344 336.960938 L 184.722656 291.511719 L 192.023438 291.472656 "/>
</g>
</g>
</g>
</g>
<g clip-path="url(#clip25)" clip-rule="nonzero">
<g clip-path="url(#clip26)" clip-rule="nonzero">
<g clip-path="url(#clip27)" clip-rule="nonzero">
<g clip-path="url(#clip28)" clip-rule="nonzero">
<path style=" stroke:none;fill-rule:nonzero;fill:rgb(45.878601%,79.60968%,33.729553%);fill-opacity:1;" d="M 187.796875 337.210938 L 183.621094 337.230469 L 187.796875 337.210938 "/>
</g>
</g>
</g>
</g>
<g clip-path="url(#clip29)" clip-rule="nonzero">
<g clip-path="url(#clip30)" clip-rule="nonzero">
<g clip-path="url(#clip31)" clip-rule="nonzero">
<g clip-path="url(#clip32)" clip-rule="nonzero">
<path style=" stroke:none;fill-rule:nonzero;fill:rgb(23.529053%,25.878906%,36.859131%);fill-opacity:1;" d="M 210.402344 291.082031 L 190.921875 337.1875 L 187.796875 337.210938 L 183.621094 337.230469 L 202.984375 291.394531 C 205.527344 291.347656 208.007812 291.25 210.402344 291.082031 "/>
</g>
</g>
</g>
</g>
<g clip-path="url(#clip33)" clip-rule="nonzero">
<g clip-path="url(#clip34)" clip-rule="nonzero">
<g clip-path="url(#clip35)" clip-rule="nonzero">
<g clip-path="url(#clip36)" clip-rule="nonzero">
<path style=" stroke:none;fill-rule:nonzero;fill:rgb(39.608765%,77.249146%,28.239441%);fill-opacity:1;" d="M 134.519531 151.351562 L 134.816406 265.808594 C 134.875 288.601562 153.324219 291.6875 176.066406 291.5625 L 200.238281 291.425781 C 222.984375 291.300781 241.414062 288.003906 241.355469 265.210938 L 241.058594 150.753906 L 134.519531 151.351562 "/>
</g>
</g>
</g>
</g>
<g clip-path="url(#clip37)" clip-rule="nonzero">
<g clip-path="url(#clip38)" clip-rule="nonzero">
<g clip-path="url(#clip39)" clip-rule="nonzero">
<g clip-path="url(#clip40)" clip-rule="nonzero">
<path style=" stroke:none;fill-rule:nonzero;fill:rgb(97.24884%,63.139343%,14.898682%);fill-opacity:1;" d="M 122.519531 38.019531 C 125.757812 41.242188 132.691406 33.015625 138.203125 27.4375 C 142.390625 23.210938 142.550781 20.03125 140.976562 17.324219 C 140.203125 17.675781 139.4375 18.03125 138.679688 18.410156 C 139.949219 20.601562 139.667969 23.445312 137.800781 25.339844 C 135.570312 27.59375 131.941406 27.609375 129.695312 25.382812 C 129.390625 25.082031 129.136719 24.753906 128.917969 24.40625 C 128.148438 24.976562 127.394531 25.566406 126.652344 26.164062 C 127.171875 26.320312 127.671875 26.59375 128.085938 27.007812 C 128.980469 27.886719 129.28125 29.140625 129 30.28125 C 129.242188 30.371094 129.472656 30.515625 129.667969 30.710938 C 130.429688 31.46875 130.433594 32.703125 129.679688 33.472656 C 128.921875 34.238281 127.683594 34.246094 126.925781 33.484375 C 126.726562 33.289062 126.585938 33.058594 126.488281 32.8125 C 125.351562 33.101562 124.105469 32.8125 123.210938 31.933594 C 122.679688 31.402344 122.363281 30.742188 122.253906 30.050781 C 121.382812 30.894531 120.539062 31.742188 119.714844 32.625 C 120.0625 34.597656 120.9375 36.449219 122.519531 38.019531 "/>
</g>
</g>
</g>
</g>
<g clip-path="url(#clip41)" clip-rule="nonzero">
<g clip-path="url(#clip42)" clip-rule="nonzero">
<g clip-path="url(#clip43)" clip-rule="nonzero">
<g clip-path="url(#clip44)" clip-rule="nonzero">
<path style=" stroke:none;fill-rule:nonzero;fill:rgb(72.158813%,37.649536%,7.839966%);fill-opacity:1;" d="M 137.800781 25.339844 C 139.667969 23.445312 139.949219 20.601562 138.679688 18.410156 C 135.246094 20.132812 131.980469 22.144531 128.917969 24.40625 C 129.136719 24.753906 129.390625 25.082031 129.695312 25.382812 C 131.941406 27.609375 135.570312 27.59375 137.800781 25.339844 "/>
</g>
</g>
</g>
</g>
<g clip-path="url(#clip45)" clip-rule="nonzero">
<g clip-path="url(#clip46)" clip-rule="nonzero">
<g clip-path="url(#clip47)" clip-rule="nonzero">
<g clip-path="url(#clip48)" clip-rule="nonzero">
<path style=" stroke:none;fill-rule:nonzero;fill:rgb(72.158813%,37.649536%,7.839966%);fill-opacity:1;" d="M 126.488281 32.8125 C 126.21875 32.117188 126.351562 31.292969 126.917969 30.726562 C 127.476562 30.160156 128.300781 30.015625 129 30.28125 C 129.28125 29.140625 128.980469 27.886719 128.085938 27.007812 C 127.671875 26.59375 127.171875 26.320312 126.652344 26.164062 C 125.121094 27.394531 123.660156 28.691406 122.253906 30.050781 C 122.363281 30.742188 122.679688 31.402344 123.210938 31.933594 C 124.105469 32.8125 125.351562 33.101562 126.488281 32.8125 "/>
</g>
</g>
</g>
</g>
<g clip-path="url(#clip49)" clip-rule="nonzero">
<g clip-path="url(#clip50)" clip-rule="nonzero">
<g clip-path="url(#clip51)" clip-rule="nonzero">
<g clip-path="url(#clip52)" clip-rule="nonzero">
<path style=" stroke:none;fill-rule:nonzero;fill:rgb(100%,100%,100%);fill-opacity:1;" d="M 126.917969 30.726562 C 126.351562 31.292969 126.21875 32.117188 126.488281 32.8125 C 126.585938 33.058594 126.726562 33.289062 126.925781 33.484375 C 127.683594 34.246094 128.921875 34.238281 129.679688 33.472656 C 130.433594 32.703125 130.429688 31.46875 129.667969 30.710938 C 129.472656 30.515625 129.242188 30.371094 129 30.28125 C 128.300781 30.015625 127.476562 30.160156 126.917969 30.726562 "/>
</g>
</g>
</g>
</g>
<g clip-path="url(#clip53)" clip-rule="nonzero">
<g clip-path="url(#clip54)" clip-rule="nonzero">
<g clip-path="url(#clip55)" clip-rule="nonzero">
<g clip-path="url(#clip56)" clip-rule="nonzero">
<path style=" stroke:none;fill-rule:nonzero;fill:rgb(97.24884%,63.139343%,14.898682%);fill-opacity:1;" d="M 252.46875 37.292969 C 254.046875 35.703125 254.910156 33.839844 255.246094 31.863281 C 254.417969 30.992188 253.574219 30.144531 252.695312 29.316406 C 252.589844 30.007812 252.28125 30.671875 251.742188 31.210938 C 250.859375 32.101562 249.609375 32.402344 248.472656 32.125 C 248.378906 32.371094 248.238281 32.605469 248.046875 32.804688 C 247.285156 33.574219 246.050781 33.578125 245.289062 32.824219 C 244.53125 32.066406 244.523438 30.828125 245.28125 30.0625 C 245.476562 29.863281 245.707031 29.71875 245.953125 29.628906 C 245.671875 28.484375 245.957031 27.234375 246.84375 26.339844 C 247.257812 25.917969 247.753906 25.648438 248.277344 25.480469 C 247.53125 24.890625 246.777344 24.308594 246.003906 23.75 C 245.78125 24.09375 245.53125 24.429688 245.226562 24.738281 C 242.996094 26.988281 239.367188 27.007812 237.121094 24.78125 C 235.242188 22.910156 234.953125 20.066406 236.207031 17.867188 C 235.449219 17.496094 234.683594 17.140625 233.910156 16.800781 C 232.351562 19.523438 232.523438 22.707031 236.726562 26.882812 C 242.273438 32.398438 249.242188 40.554688 252.46875 37.292969 "/>
</g>
</g>
</g>
</g>
<g clip-path="url(#clip57)" clip-rule="nonzero">
<g clip-path="url(#clip58)" clip-rule="nonzero">
<g clip-path="url(#clip59)" clip-rule="nonzero">
<g clip-path="url(#clip60)" clip-rule="nonzero">
<path style=" stroke:none;fill-rule:nonzero;fill:rgb(72.158813%,37.649536%,7.839966%);fill-opacity:1;" d="M 237.121094 24.78125 C 239.367188 27.007812 242.996094 26.988281 245.226562 24.738281 C 245.53125 24.429688 245.78125 24.09375 246.003906 23.75 C 242.921875 21.519531 239.652344 19.542969 236.207031 17.867188 C 234.953125 20.066406 235.242188 22.910156 237.121094 24.78125 "/>
</g>
</g>
</g>
</g>
<g clip-path="url(#clip61)" clip-rule="nonzero">
<g clip-path="url(#clip62)" clip-rule="nonzero">
<g clip-path="url(#clip63)" clip-rule="nonzero">
<g clip-path="url(#clip64)" clip-rule="nonzero">
<path style=" stroke:none;fill-rule:nonzero;fill:rgb(72.158813%,37.649536%,7.839966%);fill-opacity:1;" d="M 245.953125 29.628906 C 246.648438 29.351562 247.46875 29.488281 248.035156 30.046875 C 248.601562 30.605469 248.742188 31.429688 248.472656 32.125 C 249.609375 32.402344 250.859375 32.101562 251.742188 31.210938 C 252.28125 30.671875 252.589844 30.007812 252.695312 29.316406 C 251.277344 27.976562 249.8125 26.691406 248.277344 25.480469 C 247.753906 25.648438 247.257812 25.917969 246.84375 26.339844 C 245.957031 27.234375 245.671875 28.484375 245.953125 29.628906 "/>
</g>
</g>
</g>
</g>
<g clip-path="url(#clip65)" clip-rule="nonzero">
<g clip-path="url(#clip66)" clip-rule="nonzero">
<g clip-path="url(#clip67)" clip-rule="nonzero">
<g clip-path="url(#clip68)" clip-rule="nonzero">
<path style=" stroke:none;fill-rule:nonzero;fill:rgb(100%,100%,100%);fill-opacity:1;" d="M 248.035156 30.046875 C 247.46875 29.488281 246.648438 29.351562 245.953125 29.628906 C 245.707031 29.71875 245.476562 29.863281 245.28125 30.0625 C 244.523438 30.828125 244.53125 32.066406 245.289062 32.824219 C 246.050781 33.578125 247.285156 33.574219 248.046875 32.804688 C 248.238281 32.605469 248.378906 32.371094 248.472656 32.125 C 248.742188 31.429688 248.601562 30.605469 248.035156 30.046875 "/>
</g>
</g>
</g>
</g>
<g clip-path="url(#clip69)" clip-rule="nonzero">
<g clip-path="url(#clip70)" clip-rule="nonzero">
<g clip-path="url(#clip71)" clip-rule="nonzero">
<g clip-path="url(#clip72)" clip-rule="nonzero">
<path style=" stroke:none;fill-rule:nonzero;fill:rgb(21.569824%,21.569824%,22.749329%);fill-opacity:1;" d="M 154.65625 16.621094 C 154.644531 11.765625 169.3125 7.742188 187.414062 7.632812 C 205.523438 7.53125 220.203125 11.394531 220.222656 16.25 C 220.234375 21.117188 205.542969 14.097656 187.433594 14.203125 C 169.328125 14.300781 154.671875 21.480469 154.65625 16.621094 "/>
</g>
</g>
</g>
</g>
<g clip-path="url(#clip73)" clip-rule="nonzero">
<g clip-path="url(#clip74)" clip-rule="nonzero">
<g clip-path="url(#clip75)" clip-rule="nonzero">
<g clip-path="url(#clip76)" clip-rule="nonzero">
<path style=" stroke:none;fill-rule:nonzero;fill:rgb(28.239441%,54.508972%,19.60907%);fill-opacity:1;" d="M 84.945312 149.554688 C 85.164062 141.152344 91.867188 138.15625 100.3125 138.109375 L 115.679688 126.664062 L 115.71875 141.8125 L 84.945312 149.554688 "/>
</g>
</g>
</g>
</g>
<g clip-path="url(#clip77)" clip-rule="nonzero">
<g clip-path="url(#clip78)" clip-rule="nonzero">
<g clip-path="url(#clip79)" clip-rule="nonzero">
<g clip-path="url(#clip80)" clip-rule="nonzero">
<path style=" stroke:none;fill-rule:nonzero;fill:rgb(28.239441%,54.508972%,19.60907%);fill-opacity:1;" d="M 290.625 148.398438 C 290.367188 140 283.648438 137.082031 275.203125 137.125 L 259.777344 125.855469 L 259.816406 141 L 290.625 148.398438 "/>
</g>
</g>
</g>
</g>
<g clip-path="url(#clip81)" clip-rule="nonzero">
<g clip-path="url(#clip82)" clip-rule="nonzero">
<g clip-path="url(#clip83)" clip-rule="nonzero">
<g clip-path="url(#clip84)" clip-rule="nonzero">
<path style=" stroke:none;fill-rule:nonzero;fill:rgb(39.608765%,77.249146%,28.239441%);fill-opacity:1;" d="M 112.960938 126.003906 L 139.882812 184.546875 L 235.871094 184.007812 L 262.484375 125.164062 L 187.691406 113.097656 L 112.960938 126.003906 "/>
</g>
</g>
</g>
</g>
<g clip-path="url(#clip85)" clip-rule="nonzero">
<g clip-path="url(#clip86)" clip-rule="nonzero">
<g clip-path="url(#clip87)" clip-rule="nonzero">
<g clip-path="url(#clip88)" clip-rule="nonzero">
<path style=" stroke:none;fill-rule:nonzero;fill:rgb(18.03894%,21.569824%,32.939148%);fill-opacity:1;" d="M 138.363281 169.773438 L 185.835938 169.503906 L 189.839844 169.480469 L 237.3125 169.21875 L 254.734375 125.613281 C 254.691406 108.429688 120.675781 109.179688 120.71875 126.367188 L 138.363281 169.773438 "/>
<path style=" stroke:none;fill-rule:nonzero;fill:rgb(23.529053%,25.878906%,36.859131%);fill-opacity:1;" d="M 250.144531 120.558594 C 252.128906 121.546875 253.527344 122.644531 254.222656 123.835938 C 254.558594 124.40625 254.730469 124.996094 254.734375 125.613281 L 138.363281 169.773438 L 120.71875 126.367188 C 120.71875 125.828125 120.847656 125.304688 121.097656 124.804688 C 128.023438 110.941406 227.449219 109.210938 250.144531 120.558594 "/>
</g>
</g>
</g>
</g>
<g clip-path="url(#clip89)" clip-rule="nonzero">
<g clip-path="url(#clip90)" clip-rule="nonzero">
<g clip-path="url(#clip91)" clip-rule="nonzero">
<g clip-path="url(#clip92)" clip-rule="nonzero">
<path style=" stroke:none;fill-rule:nonzero;fill:rgb(93.328857%,16.079712%,27.059937%);fill-opacity:1;" d="M 116.996094 349.042969 C 126.289062 360.617188 139.386719 368.984375 154.390625 372.253906 C 153.542969 366.523438 145.820312 359.792969 137.929688 353.957031 C 128.128906 346.722656 121.695312 343.527344 116.996094 349.042969 "/>
</g>
</g>
</g>
</g>
<g clip-path="url(#clip93)" clip-rule="nonzero">
<g clip-path="url(#clip94)" clip-rule="nonzero">
<g clip-path="url(#clip95)" clip-rule="nonzero">
<g clip-path="url(#clip96)" clip-rule="nonzero">
<path style=" stroke:none;fill-rule:nonzero;fill:rgb(93.328857%,16.079712%,27.059937%);fill-opacity:1;" d="M 259.609375 348.238281 C 254.878906 342.78125 248.460938 346.046875 238.703125 353.390625 C 230.839844 359.316406 223.152344 366.128906 222.332031 371.871094 C 237.320312 368.433594 250.375 359.917969 259.609375 348.238281 "/>
</g>
</g>
</g>
</g>
<g clip-path="url(#clip97)" clip-rule="nonzero">
<g clip-path="url(#clip98)" clip-rule="nonzero">
<g clip-path="url(#clip99)" clip-rule="nonzero">
<g clip-path="url(#clip100)" clip-rule="nonzero">
<path style=" stroke:none;fill-rule:nonzero;fill:rgb(93.328857%,16.079712%,27.059937%);fill-opacity:1;" d="M 171.53125 358.539062 C 171.53125 357.40625 172.449219 356.476562 173.582031 356.46875 L 203.0625 356.308594 C 204.195312 356.292969 205.113281 357.210938 205.121094 358.351562 C 205.125 359.484375 204.203125 360.414062 203.074219 360.417969 L 173.59375 360.585938 C 172.460938 360.585938 171.539062 359.671875 171.53125 358.539062 "/>
</g>
</g>
</g>
</g>
<g clip-path="url(#clip101)" clip-rule="nonzero">
<g clip-path="url(#clip102)" clip-rule="nonzero">
<g clip-path="url(#clip103)" clip-rule="nonzero">
<g clip-path="url(#clip104)" clip-rule="nonzero">
<path style=" stroke:none;fill-rule:nonzero;fill:rgb(39.608765%,77.249146%,28.239441%);fill-opacity:1;" d="M 113.335938 272.152344 L 262.863281 271.308594 L 262.917969 291.074219 L 113.386719 291.914062 L 113.335938 272.152344 "/>
</g>
</g>
</g>
</g>
<g clip-path="url(#clip105)" clip-rule="nonzero">
<g clip-path="url(#clip106)" clip-rule="nonzero">
<g clip-path="url(#clip107)" clip-rule="nonzero">
<g clip-path="url(#clip108)" clip-rule="nonzero">
<path style=" stroke:none;fill-rule:nonzero;fill:rgb(39.608765%,77.249146%,28.239441%);fill-opacity:1;" d="M 113.171875 207.960938 L 262.699219 207.121094 L 262.738281 220.855469 L 113.210938 221.691406 L 113.171875 207.960938 "/>
</g>
</g>
</g>
</g>
<g clip-path="url(#clip109)" clip-rule="nonzero">
<g clip-path="url(#clip110)" clip-rule="nonzero">
<g clip-path="url(#clip111)" clip-rule="nonzero">
<g clip-path="url(#clip112)" clip-rule="nonzero">
<path style=" stroke:none;fill-rule:nonzero;fill:rgb(25.489807%,43.919373%,18.429565%);fill-opacity:1;" d="M 165.5 25.140625 C 165.898438 25.339844 166.269531 25.605469 166.605469 25.941406 C 166.605469 25.941406 162.277344 28.144531 155.296875 35.195312 C 153.410156 37.101562 151.828125 39.746094 150.441406 42.507812 L 141.261719 42.5625 C 142.492188 40.078125 144.265625 37.558594 146.546875 35.25 C 152.957031 28.777344 161.042969 22.910156 165.5 25.140625 "/>
</g>
</g>
</g>
</g>
<g clip-path="url(#clip113)" clip-rule="nonzero">
<g clip-path="url(#clip114)" clip-rule="nonzero">
<g clip-path="url(#clip115)" clip-rule="nonzero">
<g clip-path="url(#clip116)" clip-rule="nonzero">
<path style=" stroke:none;fill-rule:nonzero;fill:rgb(25.489807%,43.919373%,18.429565%);fill-opacity:1;" d="M 216.847656 25.871094 C 220.597656 27.742188 224.78125 31.167969 228.429688 34.792969 C 230.722656 37.070312 232.511719 39.570312 233.753906 42.042969 L 224.574219 42.089844 C 223.171875 39.34375 221.574219 36.71875 219.679688 34.835938 C 212.742188 27.933594 208.414062 25.753906 208.324219 25.707031 C 208.320312 25.707031 208.320312 25.707031 208.320312 25.707031 C 210.28125 23.726562 213.378906 24.136719 216.847656 25.871094 "/>
</g>
</g>
</g>
</g>
</g>
</svg>
